<svg width="16" height="14" viewBox="0 0 16 14" fill="none" xmlns="http://www.w3.org/2000/svg">
    <path d="M10.8 13V2.33333C10.8 1.97971 10.6525 1.64057 10.3899 1.39052C10.1274 1.14048 9.7713 1 9.4 1H6.6C6.2287 1 5.8726 1.14048 5.61005 1.39052C5.3475 1.64057 5.2 1.97971 5.2 2.33333V13M2.4 3.66667H13.6C14.3732 3.66667 15 4.26362 15 5V11.6667C15 12.403 14.3732 13 13.6 13H2.4C1.6268 13 1 12.403 1 11.6667V5C1 4.26362 1.6268 3.66667 2.4 3.66667Z" stroke="white" stroke-linecap="round" stroke-linejoin="round"/>
</svg>
