<svg width="16" height="13" viewBox="0 0 16 13" fill="none" xmlns="http://www.w3.org/2000/svg">
    <path d="M0.646465 2.74114e-05C0.475012 2.74114e-05 0.310581 0.0685093 0.189345 0.190408C0.0681094 0.312306 0 0.477636 0 0.650026C0 0.822416 0.0681094 0.987746 0.189345 1.10964C0.310581 1.23154 0.475012 1.30002 0.646465 1.30002H2.08162L3.77794 8.12501C3.9221 8.70351 4.43733 9.10001 5.03014 9.10001H13.0916C13.6753 9.10001 14.1712 8.71001 14.3244 8.14451L16 1.95002H14.6463L13.0909 7.80001H5.02949L3.33382 0.975025C3.26377 0.695025 3.1023 0.446757 2.87527 0.269981C2.64823 0.0932043 2.36876 -0.0018544 2.08162 2.74114e-05H0.646465ZM12.2828 9.10001C11.2194 9.10001 10.3434 9.98076 10.3434 11.05C10.3434 12.1193 11.2194 13 12.2828 13C13.3463 13 14.2222 12.1193 14.2222 11.05C14.2222 9.98076 13.3463 9.10001 12.2828 9.10001ZM6.46465 9.10001C5.40121 9.10001 4.52525 9.98076 4.52525 11.05C4.52525 12.1193 5.40121 13 6.46465 13C7.52808 13 8.40404 12.1193 8.40404 11.05C8.40404 9.98076 7.52808 9.10001 6.46465 9.10001ZM8.40404 2.74114e-05V3.25002H6.46465L9.0505 5.85002L11.6364 3.25002H9.69697V2.74114e-05H8.40404ZM6.46465 10.4C6.82925 10.4 7.11111 10.6834 7.11111 11.05C7.11111 11.4166 6.82925 11.7 6.46465 11.7C6.10004 11.7 5.81818 11.4166 5.81818 11.05C5.81818 10.6834 6.10004 10.4 6.46465 10.4ZM12.2828 10.4C12.6474 10.4 12.9293 10.6834 12.9293 11.05C12.9293 11.4166 12.6474 11.7 12.2828 11.7C11.9182 11.7 11.6364 11.4166 11.6364 11.05C11.6364 10.6834 11.9182 10.4 12.2828 10.4Z" fill="#FF861E"/>
</svg>
